<svg width="18" height="18" viewBox="0 0 18 18" fill="none" xmlns="http://www.w3.org/2000/svg">
<path opacity="0.4" d="M16 0H2C1.46957 0 0.960859 0.210714 0.585786 0.585786C0.210714 0.960859 0 1.46957 0 2V16C0 16.5304 0.210714 17.0391 0.585786 17.4142C0.960859 17.7893 1.46957 18 2 18H16C16.5299 17.9984 17.0377 17.7872 17.4125 17.4125C17.7872 17.0377 17.9984 16.5299 18 16V2C17.9984 1.47005 17.7872 0.962265 17.4125 0.587535C17.0377 0.212805 16.5299 0.00158273 16 0ZM14 10H10V14H8V10H4V8H8V4H10V8H14V10Z" fill="white"/>
</svg>
