<svg width="18" height="16" viewBox="0 0 18 16" fill="none" xmlns="http://www.w3.org/2000/svg">
<g opacity="0.4">
<path fill-rule="evenodd" clip-rule="evenodd" d="M16.7196 6.82073C16.0439 9.93619 10.3319 13.9335 8.99488 14.8312C7.65891 13.9335 1.94313 9.93191 1.25593 6.76742C1.11446 6.33737 1.04448 5.8864 1.04448 5.42686C1.04448 3.83982 1.89111 2.37808 3.25225 1.61258C3.88022 1.25777 4.58873 1.07094 5.30664 1.07094C6.58086 1.07094 7.77705 1.64583 8.59397 2.64941C8.69365 2.77094 8.84016 2.84241 8.99706 2.84241C9.15397 2.84241 9.30047 2.77197 9.39965 2.64821C10.2131 1.64566 11.4112 1.07077 12.6875 1.07077C13.4047 1.07077 14.1139 1.2576 14.7402 1.61241C16.1044 2.38013 16.9515 3.84171 16.9515 5.42875C16.9495 5.88246 16.8758 6.3312 16.7196 6.82073ZM11.6104 8.53564C11.8994 8.53564 12.1335 8.29567 12.1335 8.0012C12.1335 7.7069 11.8994 7.46624 11.6104 7.46624H9.51813V5.32865C9.51813 5.03366 9.28369 4.79421 8.99488 4.79421C8.70624 4.79421 8.4718 5.03383 8.4718 5.32865V7.46624H6.37898C6.09017 7.46624 5.85574 7.7057 5.85574 8.0012C5.85574 8.29567 6.09034 8.53564 6.37898 8.53564H8.4718V10.6732C8.4718 10.9675 8.70624 11.2075 8.99488 11.2075C9.28369 11.2075 9.51813 10.9675 9.51813 10.6732V8.53564H11.6104Z" fill="white"/>
<path fill-rule="evenodd" clip-rule="evenodd" d="M12.6853 0C13.5784 0 14.4643 0.233797 15.244 0.675337C16.9402 1.63092 17.9958 3.4521 18 5.42772C18 5.99644 17.9101 6.55951 17.7322 7.10389C16.8892 10.9996 9.58911 15.7192 9.27748 15.9206C9.19257 15.975 9.09658 16 8.99891 16C8.90191 16 8.80525 15.975 8.7205 15.9206C8.40887 15.7192 1.10506 10.9945 0.25038 7.05024C0.0899488 6.56345 0 5.99884 0 5.42464C0 3.44902 1.05405 1.62869 2.74965 0.674309C3.52948 0.233797 4.41488 0 5.30849 0C6.69464 0 8.01031 0.547983 8.99689 1.52071C9.98147 0.547983 11.2966 0 12.6853 0ZM8.99488 14.8312C10.3319 13.9335 16.0439 9.93619 16.7196 6.82073C16.8758 6.3312 16.9495 5.88246 16.9515 5.42875C16.9515 3.84171 16.1044 2.38013 14.7402 1.61241C14.1139 1.2576 13.4047 1.07077 12.6875 1.07077C11.4112 1.07077 10.2131 1.64566 9.39965 2.64821C9.30047 2.77197 9.15397 2.84241 8.99706 2.84241C8.84016 2.84241 8.69365 2.77094 8.59397 2.64941C7.77705 1.64583 6.58086 1.07094 5.30664 1.07094C4.58873 1.07094 3.88022 1.25777 3.25225 1.61258C1.89111 2.37808 1.04448 3.83982 1.04448 5.42686C1.04448 5.8864 1.11446 6.33737 1.25593 6.76742C1.94313 9.93191 7.65891 13.9335 8.99488 14.8312Z" fill="white"/>
</g>
</svg>
