<svg xmlns="http://www.w3.org/2000/svg" width="56" height="56" viewBox="0 0 56 56">
    <g id="Group_491" transform="translate(-160 -313)">
        <rect id="Rectangle_289" width="56" height="56" rx="15" transform="translate(160 313)" fill="#64091c"/>
    </g>
    <path id="Path_27" d="M552.991,730.586a3.373,3.373,0,0,1,2.36,1.6.472.472,0,0,0-.717.119c-.266.458.714,1.6,1.15,1.728a.849.849,0,0,0-1.118.507,3.443,3.443,0,0,0-.129,1.9,1.961,1.961,0,0,0-2.105.023s.263-1.263-.4-1.436-.961,1.278.343,2.014a2.17,2.17,0,0,0-.944,1.7,2.707,2.707,0,0,1-1.322-1.021,2.76,2.76,0,0,1-1.69,1.861s.137-.566-.553-.255a7.144,7.144,0,0,1-3.257.435s.846-1.539.649-1.849-.625-.149-.625-.149-.166-.451.888-1.113,1.919-1.8,1.608-2.518-1.377-.6-1.8.28a4.009,4.009,0,0,0-.254,2s-2.134.525-2.821,1.563a2.041,2.041,0,0,1-.159-1.6,2.854,2.854,0,0,1-1.672.424s.172-1.1-.487-.8a2.714,2.714,0,0,1-1.509.089s.233-.228-.458-.254a8.705,8.705,0,0,1-1.464-.212,9.124,9.124,0,0,0,1.718-1.316c.372-.493-.182-.617-.182-.617s.87-.569.793-1.02a.626.626,0,0,0-.372-.536,1.563,1.563,0,0,1,.78-.452c.534-.144.869-.726.474-1.067s-.555-.344-.555-.344.244-.343,1.077-.289a1.531,1.531,0,0,0,1.284-.57,1.51,1.51,0,0,0,.894.4,2.585,2.585,0,0,1,1.319.512c.423.277,1.4-.025,1.087-.877s-2.228-.638-2.6-.477a.641.641,0,0,0-.634-.409,1.446,1.446,0,0,0-.841.179s.468-.55-.026-.852a1.679,1.679,0,0,1-.665-.776,2.215,2.215,0,0,0,1.036-.626c.3-.422,1.354-.528,1.354-.528a1.592,1.592,0,0,1,.081-.839,1.612,1.612,0,0,0,1.607.115,1.119,1.119,0,0,0,.676-1.176,1.772,1.772,0,0,0,1.106.258,1.9,1.9,0,0,1,.856.853c.406.69.73,1.274,1.415,1.341s.778-.815.2-1.226a1.8,1.8,0,0,0-.823-.414,3.473,3.473,0,0,0,.045-1.563,5.215,5.215,0,0,0,1.168.2,2.167,2.167,0,0,1,1.19.59c.57.539,1.194.351,1.288-.18a2.488,2.488,0,0,1,.363,1.556c-.15.743.006,1.029.36,1.063s.509-.491.509-.491a1.205,1.205,0,0,1,.166,1.214,3.293,3.293,0,0,0-.383.9,2.094,2.094,0,0,1-1.206-.005c-.565-.211-1.55.54-1.3,1.608a1.775,1.775,0,0,0,1.783,1.538,1.261,1.261,0,0,0,.744-.477A.693.693,0,0,1,552.991,730.586Z" transform="translate(-509.965 -706.586)" fill="#fff"/>
    <path id="Path_28" d="M584.909,742.545s-4.972-4.837-8.555-2.9c0,0-.023-.646-.244-.711a6.15,6.15,0,0,1,4.574-.568,11.136,11.136,0,0,1,4.861,2.441Z" transform="translate(-535.165 -716.189)" fill="#fff"/>
    <path id="Path_59" d="M506.711,727.765a8.616,8.616,0,0,0,3.2-5.318l-.705,6.566s-1.954-.868-5.047.434a15.26,15.26,0,0,1-5.915,1.194c-11.124,0-18.07-8.52-18.07-18.993s6.946-18.993,18.07-18.993a15.031,15.031,0,0,1,5.915,1.248c3.093,1.3,5.047.434,5.047.434l.705,6.566a9.043,9.043,0,0,0-3.473-5.481,15.812,15.812,0,0,0-8.194-2.442c-7.923,0-13.186,9.822-13.186,18.776s5.264,18.776,13.186,18.776a15.029,15.029,0,0,0,8.3-2.6Z" transform="translate(-471.291 -686.656)" fill="#fff"/>
</svg>
