<svg xmlns="http://www.w3.org/2000/svg" width="18" height="18" viewBox="0 0 18 18"><defs><style>.a{fill:#fff;opacity:0.4;}</style></defs><path class="a" d="M13.726,5.109A6.1,6.1,0,0,0,3.649,8.069a.437.437,0,0,1-.423.332H1.147a.435.435,0,0,1-.428-.514A9,9,0,0,1,15.78,3.055l1.3-1.3a.871.871,0,0,1,1.487.616V7.24a.871.871,0,0,1-.871.871H12.826a.871.871,0,0,1-.616-1.487ZM1.433,11.014H6.3A.871.871,0,0,1,6.914,12.5L5.4,14.016a6.1,6.1,0,0,0,10.076-2.96.437.437,0,0,1,.423-.332h2.08a.435.435,0,0,1,.428.514A9,9,0,0,1,3.345,16.07l-1.3,1.3A.871.871,0,0,1,.563,16.75V11.885A.871.871,0,0,1,1.433,11.014Z" transform="translate(-0.563 -0.563)"/></svg>