<svg xmlns="http://www.w3.org/2000/svg" width="18" height="18" viewBox="0 0 18 18"><defs><style>.a{fill:#fff;opacity:0.4;}</style></defs><path class="a" d="M9.563.563a9,9,0,1,0,9,9A9,9,0,0,0,9.563.563Zm0,3.992A1.524,1.524,0,1,1,8.038,6.079,1.524,1.524,0,0,1,9.563,4.554Zm2.032,9.218a.436.436,0,0,1-.435.435H7.966a.436.436,0,0,1-.435-.435V12.9a.436.436,0,0,1,.435-.435H8.4V10.143H7.966a.436.436,0,0,1-.435-.435V8.837A.436.436,0,0,1,7.966,8.4h2.323a.436.436,0,0,1,.435.435v3.629h.435a.436.436,0,0,1,.435.435Z" transform="translate(-0.563 -0.563)"/></svg>