<svg xmlns="http://www.w3.org/2000/svg" width="18" height="15.75" viewBox="0 0 18 15.75"><defs><style>.a{fill:#fff;opacity:0.4;}</style></defs><path class="a" d="M18,6.188V16.313A1.688,1.688,0,0,1,16.313,18H1.688A1.688,1.688,0,0,1,0,16.313V6.188A1.688,1.688,0,0,1,1.688,4.5H4.781l.432-1.157A1.685,1.685,0,0,1,6.792,2.25H11.2a1.685,1.685,0,0,1,1.579,1.093L13.219,4.5h3.094A1.688,1.688,0,0,1,18,6.188ZM13.219,11.25A4.219,4.219,0,1,0,9,15.469,4.222,4.222,0,0,0,13.219,11.25Zm-1.125,0A3.094,3.094,0,1,1,9,8.156,3.1,3.1,0,0,1,12.094,11.25Z" transform="translate(0 -2.25)"/></svg>