<svg xmlns="http://www.w3.org/2000/svg" width="16.971" height="16.971" viewBox="0 0 16.971 16.971"><defs><style>.a{fill:#fff;}</style></defs><path class="a" d="M11.89,1.7,10.3.11a.375.375,0,0,0-.53,0l-.53.53a.375.375,0,0,0,0,.53l-1.8,1.8a3,3,0,0,0-3.29.638L.439,7.318a1.5,1.5,0,0,0,0,2.121l2.121,2.121a1.5,1.5,0,0,0,2.121,0L8.394,7.848a3,3,0,0,0,.638-3.29l1.8-1.8a.375.375,0,0,0,.53,0l.53-.53A.375.375,0,0,0,11.89,1.7ZM4.2,9.921,2.079,7.8l2.86-2.86L7.061,7.061,4.2,9.921Z" transform="translate(0 8.485) rotate(-45)"/></svg>
