<svg xmlns="http://www.w3.org/2000/svg" width="40" height="34.286" viewBox="0 0 40 34.286"><defs><style>.a{fill:#fff;}</style></defs><g transform="translate(-2.25 -4.5)"><path class="a" d="M24.82,20.883A5.625,5.625,0,1,1,19.2,15.258,5.625,5.625,0,0,1,24.82,20.883Z" transform="translate(3.055 2.903)"/><path class="a" d="M38.679,7.357H30.821L27.964,4.5H16.536L13.679,7.357H5.821A3.571,3.571,0,0,0,2.25,10.929V35.214a3.571,3.571,0,0,0,3.571,3.571H38.679a3.571,3.571,0,0,0,3.571-3.571V10.929A3.571,3.571,0,0,0,38.679,7.357ZM22.25,33.786a10,10,0,1,1,10-10A10,10,0,0,1,22.25,33.786Z"/></g></svg>