<svg xmlns="http://www.w3.org/2000/svg" width="12" height="12" viewBox="0 0 12 12"><defs><style>.a{fill:#fff;}</style></defs><g transform="translate(0 0)"><path class="a" d="M5.821,17.25a1.506,1.506,0,0,1-1.292-1.292V11.25H4.252a.88.88,0,0,0-.877.877v7.892l1.688-1.673h6.2a.891.891,0,0,0,.877-.891v-.2Z" transform="translate(-3.375 -8.019)"/><path class="a" d="M17.147,3.375H9.093A1.01,1.01,0,0,0,8.086,4.382V10.9a1.012,1.012,0,0,0,1.007,1.01h6.871l2.189,1.529V4.382A1.01,1.01,0,0,0,17.147,3.375Z" transform="translate(-6.153 -3.375)"/></g></svg>
