<svg xmlns="http://www.w3.org/2000/svg" width="13.75" height="20" viewBox="0 0 13.75 20">
      <path d="M93.75,6.875a6.793,6.793,0,0,0-.166-1.514c0-.013-.006-.025-.01-.038L92.484.488A.623.623,0,0,0,91.875,0h-10a.625.625,0,0,0-.61.488L80.176,5.321a.372.372,0,0,0-.01.04A6.721,6.721,0,0,0,80,6.875a6.883,6.883,0,0,0,6.25,6.844V18.75h-2.5a.625.625,0,0,0,0,1.25H90a.625.625,0,0,0,0-1.25H87.5V13.719A6.883,6.883,0,0,0,93.75,6.875ZM81.316,6.25a5.626,5.626,0,0,1,.06-.575l.011-.043.988-4.383h9l.988,4.383c0,.012.006.026.01.039a5.774,5.774,0,0,1,.06.579Z" transform="translate(-80)" fill="#fff"/>
</svg>
