<svg xmlns="http://www.w3.org/2000/svg" width="20" height="20" viewBox="0 0 20 20"><defs><style>.a{fill:#fff;}</style></defs><path class="a" d="M13.856,10.22a3.636,3.636,0,1,0,3.636,3.636,3.635,3.635,0,0,0-3.636-3.636Zm8.127,2.727a8.177,8.177,0,0,0-7.218-7.218V3.856H12.947V5.729a8.177,8.177,0,0,0-7.218,7.218H3.856v1.818H5.729a8.177,8.177,0,0,0,7.218,7.218v1.873h1.818V21.983a8.177,8.177,0,0,0,7.218-7.218h1.873V12.947H21.983ZM13.856,20.22a6.364,6.364,0,1,1,6.364-6.364A6.365,6.365,0,0,1,13.856,20.22Z" transform="translate(-3.856 -3.856)"/></svg>