<svg xmlns="http://www.w3.org/2000/svg" width="243.261" height="50.649" viewBox="0 0 243.261 50.649"><defs><style>.a{fill:#fff;}</style></defs><g transform="translate(-434.298 -689.18)"><path class="a" d="M558.453,732.995a4.491,4.491,0,0,1,3.143,2.136.629.629,0,0,0-.954.158c-.354.61.951,2.137,1.532,2.3a1.13,1.13,0,0,0-1.488.675,4.583,4.583,0,0,0-.172,2.533,2.611,2.611,0,0,0-2.8.03s.35-1.681-.528-1.912-1.28,1.7.456,2.682a2.889,2.889,0,0,0-1.257,2.268,3.6,3.6,0,0,1-1.761-1.359,3.675,3.675,0,0,1-2.25,2.477s.182-.754-.736-.339a9.509,9.509,0,0,1-4.337.579s1.126-2.049.864-2.462-.833-.2-.833-.2-.221-.6,1.183-1.482,2.555-2.4,2.142-3.352-1.833-.8-2.39.373a5.338,5.338,0,0,0-.339,2.665s-2.842.7-3.756,2.082a2.718,2.718,0,0,1-.211-2.128,3.8,3.8,0,0,1-2.226.564s.23-1.461-.649-1.071a3.613,3.613,0,0,1-2.009.118s.311-.3-.61-.338a11.588,11.588,0,0,1-1.949-.283,12.148,12.148,0,0,0,2.288-1.752c.5-.656-.242-.822-.242-.822s1.159-.758,1.055-1.358a.833.833,0,0,0-.5-.714,2.08,2.08,0,0,1,1.039-.6c.711-.192,1.157-.966.631-1.421s-.739-.458-.739-.458.324-.456,1.434-.384a2.039,2.039,0,0,0,1.709-.759,2.011,2.011,0,0,0,1.19.537,3.442,3.442,0,0,1,1.756.682c.563.369,1.859-.033,1.447-1.168s-2.966-.85-3.456-.635a.854.854,0,0,0-.844-.545,1.927,1.927,0,0,0-1.121.239s.623-.733-.034-1.134a2.236,2.236,0,0,1-.885-1.034,2.95,2.95,0,0,0,1.38-.834c.4-.562,1.8-.7,1.8-.7a2.122,2.122,0,0,1,.108-1.117,2.147,2.147,0,0,0,2.139.154,1.49,1.49,0,0,0,.9-1.566,2.359,2.359,0,0,0,1.472.344,2.535,2.535,0,0,1,1.14,1.136c.54.919.972,1.7,1.884,1.786s1.036-1.085.271-1.632a2.392,2.392,0,0,0-1.1-.551,4.623,4.623,0,0,0,.06-2.082,6.941,6.941,0,0,0,1.556.266,2.886,2.886,0,0,1,1.585.786c.759.718,1.589.467,1.715-.24a3.312,3.312,0,0,1,.483,2.072c-.2.99.008,1.37.479,1.415s.677-.653.677-.653a1.6,1.6,0,0,1,.221,1.616,4.389,4.389,0,0,0-.51,1.2,2.789,2.789,0,0,1-1.606-.007c-.752-.281-2.063.719-1.726,2.141a2.363,2.363,0,0,0,2.374,2.047,1.678,1.678,0,0,0,.99-.635A.923.923,0,0,1,558.453,732.995Z" transform="translate(-75.657 -19.612)"/><path class="a" d="M607.439,744.37s-17.7-6.862-30.461-4.118c0,0-.081-.916-.867-1.009,0,0,6.137-1.679,16.287-.806a71.177,71.177,0,0,1,17.308,3.462Z" transform="translate(-96.588 -27.47)"/><g transform="translate(434.298 689.18)"><path class="a" d="M734.082,732.241l-3.4,10.91h-31.5l1.662-.506a3.49,3.49,0,0,0,2.529-3.4V696.4a3.49,3.49,0,0,0-2.529-3.4l-1.662-.506h14.739l-1.662.506a3.49,3.49,0,0,0-2.529,3.4v42.845a3.49,3.49,0,0,0,2.529,3.4l.578.145h7.514a14.045,14.045,0,0,0,13.222-9.248Z" transform="translate(-595.943 -692.502)"/><path class="a" d="M515.506,739.4a11.472,11.472,0,0,0,4.262-7.081l-.939,8.743s-2.6-1.156-6.719.578a20.317,20.317,0,0,1-7.876,1.59c-14.811,0-24.06-11.343-24.06-25.288s9.248-25.288,24.06-25.288a20.012,20.012,0,0,1,7.876,1.662c4.118,1.734,6.719.578,6.719.578l.939,8.742c-.433-3.4-2.962-5.924-4.624-7.3a21.052,21.052,0,0,0-10.91-3.251c-10.549,0-17.557,13.078-17.557,25s7.008,25,17.557,25a20.01,20.01,0,0,0,11.055-3.468Z" transform="translate(-480.175 -692.583)"/><path class="a" d="M838.76,732.241l-3.4,10.91h-31.5l1.662-.506a3.491,3.491,0,0,0,2.529-3.4V696.4a3.491,3.491,0,0,0-2.529-3.4l-1.662-.506H818.6l-1.662.506a3.49,3.49,0,0,0-2.528,3.4v42.845a3.49,3.49,0,0,0,2.528,3.4l.578.145h7.514a14.045,14.045,0,0,0,13.222-9.248Z" transform="translate(-651.276 -692.502)"/><path class="a" d="M935.315,727.553c5.13,9.393,7.369,13.294,12.933,15.679h-8.526c-7.369,0-8.453-9.1-13.944-19.581-1.806-3.468-3.252-4.335-6.214-4.335h-3.179V739.4a3.538,3.538,0,0,0,2.673,3.4l1.662.434H905.475l1.806-.434a3.538,3.538,0,0,0,2.673-3.4V696.557a3.538,3.538,0,0,0-2.673-3.4l-1.734-.506H922.6c12.717,0,15.607,5.925,15.607,13.294,0,6.792-2.529,12.5-13.222,13.222,3.9.578,6.719,1.735,9.9,7.587ZM931.7,706.022c0-8.381-5.2-13.005-9.1-13.005h-6.141v26.01H922.6C926.5,719.027,931.7,714.4,931.7,706.022Z" transform="translate(-704.988 -692.583)"/><g transform="translate(53.897)"><path class="a" d="M660.559,715.467c0-.008,0-.016-.007-.024l.08.385Z" transform="translate(-629.419 -704.629)"/><path class="a" d="M628.9,733.469a14.046,14.046,0,0,1-13.222,9.248h-7.514l-.578-.144a3.491,3.491,0,0,1-2.529-3.4V692.791h6.936a14.077,14.077,0,0,1,13.648,10.525L623.409,692.5h-28.9l1.662.506a3.49,3.49,0,0,1,2.529,3.4v42.845a3.491,3.491,0,0,1-2.529,3.4l-1.662.506h31.5l3.4-10.91Z" transform="translate(-594.508 -692.502)"/></g></g></g></svg>