<svg xmlns="http://www.w3.org/2000/svg" width="34.368" height="40" viewBox="0 0 34.368 40"><defs><style>.a{fill:#fff;}</style></defs><g transform="translate(-7.031 0.022)"><circle class="a" cx="2.499" cy="2.499" r="2.499" transform="translate(21.715 20.607)"/><path class="a" d="M48.75,67.031l.5,2.5.5-2.5A2.677,2.677,0,0,1,48.75,67.031Z" transform="translate(-25.035 -40.238)"/><path class="a" d="M36.968,56.875l-2.437.5,2.437.5Z" transform="translate(-16.502 -34.143)"/><path class="a" d="M49.75,44.468l-.5-2.749-.5,2.687A5.383,5.383,0,0,1,49.75,44.468Z" transform="translate(-25.035 -25.049)"/><path class="a" d="M61.75,57.313l-2.375-.437a2.371,2.371,0,0,1,0,.937Z" transform="translate(-31.411 -34.143)"/><path class="a" d="M23.969,45.927a.619.619,0,1,1,.875.875l-.437.437a11.84,11.84,0,0,0,15.372.438L39.4,47.3a.619.619,0,1,1,.875-.875l.438.438a11.779,11.779,0,0,0,.437-16.309l-.375.375a.619.619,0,0,1-.875-.875l.438-.438a11.779,11.779,0,0,0-16.309.438l.438.437a.62.62,0,0,1-.813.937l-.437-.438a11.767,11.767,0,0,0,.437,15.372Zm-1.625-6.811a.609.609,0,0,1,.5-.625l6.186-1.25a3.477,3.477,0,0,1,1.5-1.5l1.187-6.811a.625.625,0,0,1,1.25,0l1.25,6.811a4.315,4.315,0,0,1,1.5,1.5l6.186,1.25a.625.625,0,1,1,0,1.25l-6.311,1.25a3.8,3.8,0,0,1-1.374,1.25l-1.25,6.249a.625.625,0,1,1-1.25,0l-1.25-6.249a3.314,3.314,0,0,1-1.313-1.312l-6.311-1.25A.51.51,0,0,1,22.344,39.116Z" transform="translate(-8.127 -15.947)"/><path class="a" d="M38.274,23.107a.59.59,0,0,1,.625-.625h2.5A17.267,17.267,0,0,0,26.714,5.8a3.448,3.448,0,0,0-5-4.749,3.4,3.4,0,0,0,0,4.687A17.382,17.382,0,0,0,7.031,22.482h2.5a.625.625,0,1,1,0,1.25h-2.5A17.225,17.225,0,0,0,23.59,39.978v-2.5a.625.625,0,0,1,1.25,0v2.5A17.225,17.225,0,0,0,41.4,23.731H38.9A.59.59,0,0,1,38.274,23.107ZM24.215,1.236A2.214,2.214,0,0,1,26.4,3.423a2.187,2.187,0,0,1-4.374,0A2.214,2.214,0,0,1,24.215,1.236Zm0,34.368A13.122,13.122,0,1,1,37.337,22.482,13.12,13.12,0,0,1,24.215,35.6Z"/></g></svg>