<svg xmlns="http://www.w3.org/2000/svg" width="50" height="36.078" viewBox="0 0 50 36.078"><defs><style>.a{fill:#fff;}</style></defs><g transform="translate(-250.214 -23.444)"><path class="a" d="M276.341,59.794h2.583c.026-.024.047-.051.073-.073h-.019c0-7.777,5.948-14.082,13.287-14.082a12.591,12.591,0,0,1,4.7.911,12.626,12.626,0,0,0-1.693-.118c-7.087,0-12.876,5.881-13.265,13.289l22.971.073a19.365,19.365,0,0,0-13.614-18.343l-.28-9.878-2.245-2.163-.1-3.457.324-.008-.038-1.375-2.668.076.038,1.374.323-.009.039,1.395-1.082-1.042-4.455.244,4.756,5.688-.193.161h.252v8.5a19.614,19.614,0,0,1,5.553,1.171,19.88,19.88,0,0,0-2.455-.158,19.083,19.083,0,0,0-19.253,17.748s2.794.047,2.8.035c.018-9.353,7.177-16.929,16.008-16.929a15.172,15.172,0,0,1,5.666,1.1,15.213,15.213,0,0,0-2.039-.142C283.784,43.784,276.809,50.869,276.341,59.794Z" transform="translate(-4.767 -0.273)"/><path class="a" d="M284.185,27.443l.033.04.16-.2Z" transform="translate(-8.234 -0.93)"/><path class="a" d="M284.632,27.07l-.192.161.313-.017Z" transform="translate(-8.295 -0.879)"/><path class="a" d="M290.544,35.071l.058.07.193-.161h-.251Z" transform="translate(-9.775 -2.796)"/><path class="a" d="M275.984,26.552l-3.819,4.77.253,8.935a16.475,16.475,0,0,0-2.056-.616,28.218,28.218,0,0,0,.8-7.621c0-4.734-.661-8.576-1.477-8.576s-1.477,3.841-1.477,8.576a30.213,30.213,0,0,0,.72,7.354,16.947,16.947,0,0,0-2.014-.158,19.54,19.54,0,0,0,.717-6.191c0-3.655-.495-6.616-1.1-6.616s-1.1,2.962-1.1,6.616a19.493,19.493,0,0,0,.718,6.194,16.764,16.764,0,0,0-2.144.188v-1.3c.511-.728.889-3.33.889-6.438,0-3.671-.528-6.646-1.178-6.646s-1.178,2.975-1.178,6.646c0,2.968.345,5.478.82,6.334v1.516a16.072,16.072,0,0,0-13.145,15.65h11.011A19.187,19.187,0,0,1,280,40.643c.259,0,.515.007.772.017V32.275ZM273.49,37.233l-.12-4.247,2.22-.062.119,4.246Z"/></g></svg>