<svg xmlns="http://www.w3.org/2000/svg" width="39.994" height="40" viewBox="0 0 39.994 40"><defs><style>.a{fill:#fff;}</style></defs><g transform="translate(-0.004)"><g transform="translate(0.004)"><path class="a" d="M32.752,8.006l-.6.19-3.187.284-.9,1.437-.654-.208L24.876,7.423l-.367-1.189-.494-1.268-1.593-1.43-1.881-.368-.043.861,1.842,1.8.9,1.062-1.013.53L21.4,7.175l-1.236-.516.041-1L18.587,5l-.539,2.344-1.635.371.162,1.308,2.131.41.368-2.089,1.757.26.817.479h1.311l.9,1.8,2.381,2.414-.176.938-1.919-.244-3.314,1.674L18.443,17.52l-.311,1.268h-.858l-1.6-.736-1.551.736.386,1.637.675-.779,1.187-.037-.083,1.469.983.288.982,1.1,1.6-.449,1.831.288,2.126.572L24.878,23l1.8,2.044,3.475,2.044-2.247,4.293-2.372,1.1-.9,2.455L21.2,37.232l-.367,1.322A19.973,19.973,0,0,0,32.752,8.006Z" transform="translate(3.855 0.866)"/><path class="a" d="M22.3,28.394l-1.457-2.7,1.337-2.786-1.337-.4L19.342,21l-3.326-.746-1.1-2.31v1.371h-.486L11.56,15.43V12.238l-2.1-3.416-3.336.595H3.876L2.745,8.675,4.188,7.532l-1.439.332A19.972,19.972,0,0,0,20,37.942a20.976,20.976,0,0,0,2.511-.176L22.3,35.345s.917-3.6.917-3.72S22.3,28.394,22.3,28.394Z" transform="translate(-0.004 2.058)"/><path class="a" d="M6.453,6.449l3.552-.5,1.637-.9,1.842.531,2.944-.163,1.008-1.585,1.471.242,3.571-.335.984-1.085,1.388-.927,1.963.3.714-.108A19.932,19.932,0,0,0,3.6,7.271h.01Zm13.41-4.46L21.905.865l1.311.758-1.9,1.445-1.813.182-.816-.53Zm-6.049.164.9.376,1.18-.376.643,1.114-2.725.716L12.5,3.216S13.784,2.391,13.814,2.153Z" transform="translate(0.977)"/></g></g></svg>
