<svg xmlns="http://www.w3.org/2000/svg" width="24.375" height="40" viewBox="0 0 24.375 40"><defs><style>.a{fill:#fff;}</style></defs><g transform="translate(-19.531)"><g transform="translate(19.531)"><path class="a" d="M42.038,35.938h-.007v-5.7a7.576,7.576,0,0,0-2.789-5.482l-5.961-4.38v-.745l5.961-4.38a7.576,7.576,0,0,0,2.789-5.482v-5.7h.006a1.871,1.871,0,0,0,1.869-1.875V1.875A1.871,1.871,0,0,0,42.037,0H21.407a1.878,1.878,0,0,0-1.876,1.875v.312a1.878,1.878,0,0,0,1.876,1.875l.008,5.7a7.533,7.533,0,0,0,2.77,5.478l5.971,4.387v.738l-5.975,4.388a7.538,7.538,0,0,0-2.775,5.478v5.7h0a1.878,1.878,0,0,0-1.876,1.875v.313A1.878,1.878,0,0,0,21.407,40H42.038a1.871,1.871,0,0,0,1.868-1.875v-.313A1.871,1.871,0,0,0,42.038,35.938Zm-1.257,0H39.219v-4.9a5.571,5.571,0,0,0-2.041-4.048L32.1,23.248a.622.622,0,0,0-.74,0l-5.1,3.745a5.564,5.564,0,0,0-2.048,4.046v4.9H22.656v-5.7a6.35,6.35,0,0,1,2.269-4.471l6.227-4.574a.624.624,0,0,0,.254-.5V19.315a.623.623,0,0,0-.251-.5l-6.232-4.574a6.348,6.348,0,0,1-2.267-4.471v-5.7H40.781v5.7A6.384,6.384,0,0,1,38.5,14.242l-6.2,4.567a.633.633,0,0,0-.264.5v1.376a.624.624,0,0,0,.254.5L38.5,25.758a6.383,6.383,0,0,1,2.281,4.476Z" transform="translate(-19.531)"/></g><g transform="translate(26.012 11.881)"><path class="a" d="M47.125,30.135a.625.625,0,0,0-.594-.43l-10.174,0a.625.625,0,0,0-.37,1.129l5.1,3.744a.623.623,0,0,0,.741,0L46.9,30.833A.625.625,0,0,0,47.125,30.135Z" transform="translate(-35.732 -29.702)"/></g></g></svg>