<svg xmlns="http://www.w3.org/2000/svg" width="39.896" height="40" viewBox="0 0 39.896 40"><defs><style>.a{fill:#fff;}</style></defs><g transform="translate(-380.507 -350.318)"><g transform="translate(393.772 352.167)"><path class="a" d="M403.067,376.152a2.541,2.541,0,1,0-3.406.987A2.512,2.512,0,0,0,403.067,376.152Zm-2.526-2.507c-.532.243-.568.867-.846.7-.362-.213.116-.889.65-1.134a.954.954,0,0,1,1.284.245C401.8,373.842,401.076,373.4,400.542,373.645Z" transform="translate(-398.301 -357.803)"/><path class="a" d="M405.672,380.351a2.478,2.478,0,1,0-1.075-3.381A2.51,2.51,0,0,0,405.672,380.351Zm.745-3.891a.95.95,0,0,1,1.282.245c.176.381-.552-.06-1.085.184s-.567.867-.846.7C405.406,377.378,405.883,376.7,406.417,376.46Z" transform="translate(-399.831 -358.621)"/><path class="a" d="M413.5,382.977h0a2.509,2.509,0,0,0-1.072-3.381,2.775,2.775,0,0,0-.254-.118,2.537,2.537,0,0,0-2.526.35,2.394,2.394,0,0,0-.911,1.94,2.341,2.341,0,0,0,.051.473,2.742,2.742,0,0,0-.391-.256h0c-.034-.018-.068-.034-.1-.049h0a2.473,2.473,0,0,0-2.331,4.361l0,0c.035.019.066.037.1.054a2.552,2.552,0,0,0,2.159.129,2.433,2.433,0,0,0,1.48-2.775,2.631,2.631,0,0,0,.39.257A2.511,2.511,0,0,0,413.5,382.977Zm-6.777-.189c-.534.245-.57.868-.848.7-.362-.212.118-.888.65-1.135a.955.955,0,0,1,1.285.25C407.984,382.984,407.258,382.541,406.725,382.787Zm4.232-2.445c-.535.243-.569.866-.847.7-.361-.214.116-.889.649-1.135a.951.951,0,0,1,1.284.247C412.216,380.538,411.492,380.1,410.957,380.342Z" transform="translate(-399.931 -359.541)"/><path class="a" d="M403.327,382.9a2.541,2.541,0,1,0-3.408.987A2.511,2.511,0,0,0,403.327,382.9Zm-2.773-2.441c-.534.245-.567.868-.845.7-.362-.212.116-.888.65-1.133a.949.949,0,0,1,1.281.246C401.816,380.657,401.088,380.215,400.554,380.46Z" transform="translate(-398.367 -359.521)"/><path class="a" d="M412.472,389.359c.024-.072.046-.146.063-.217,0-.025.013-.051.017-.075a2.531,2.531,0,0,0,.044-.283v0a2.262,2.262,0,0,0,.006-.3c0-.016,0-.032,0-.048a2.293,2.293,0,0,0-.028-.247.576.576,0,0,0-.01-.061,2.318,2.318,0,0,0-.063-.265.093.093,0,0,1,0-.018,2.634,2.634,0,0,0-.105-.283c-.007-.013-.013-.028-.021-.04-.034-.075-.072-.146-.111-.218a.2.2,0,0,1-.02-.034l-.058-.092-.007-.008a2.507,2.507,0,0,0-.166-.22c-.019-.022-.038-.041-.057-.062-.045-.052-.094-.1-.143-.149-.023-.022-.048-.043-.072-.066a1.834,1.834,0,0,0-.163-.129c-.024-.019-.047-.035-.072-.055a2.394,2.394,0,0,0-.254-.156,2.509,2.509,0,0,0-3.409.986,2.46,2.46,0,0,0-.078,2.139,2.578,2.578,0,0,0-3.2-.72,2.422,2.422,0,0,0-1.2,2.913,2.57,2.57,0,0,0-.607-.448h0a2.606,2.606,0,0,0-.938-.289,2.449,2.449,0,0,0,1.764-1.258,2.528,2.528,0,1,0-2.47,1.277,2.464,2.464,0,0,0-1.766,1.26,2.51,2.51,0,0,0,1.073,3.381h0a2.887,2.887,0,0,0,.436.183.214.214,0,0,1,.039.013c.022.007.045.01.067.016a2.488,2.488,0,0,0,2.865-1.2,2.438,2.438,0,0,0,.17-1.9,2.623,2.623,0,0,0,.605.449,2.55,2.55,0,0,0,2.58-.092.007.007,0,0,0,.007-.006,2.383,2.383,0,0,0,.82-.891h0l0,0a2.226,2.226,0,0,0,.1-.218.424.424,0,0,0,.019-.042,2.457,2.457,0,0,0-.04-1.876,2.565,2.565,0,0,0,.821.69c.079.041.155.079.237.113a2.5,2.5,0,0,0,3.171-1.1v0h0a2.39,2.39,0,0,0,.124-.274A.761.761,0,0,0,412.472,389.359Zm-11.815-2.037c-.534.246-.568.869-.848.7-.36-.212.116-.888.651-1.133a.95.95,0,0,1,1.284.247C401.917,387.521,401.19,387.079,400.657,387.322Zm.429,4.91c-.533.246-.569.869-.846.7-.363-.214.116-.889.649-1.132a.948.948,0,0,1,1.283.247C402.345,392.431,401.62,391.989,401.086,392.233Zm4.3-2.578c-.535.246-.57.868-.847.705-.362-.214.116-.889.649-1.133a.949.949,0,0,1,1.284.246C406.648,389.851,405.923,389.411,405.388,389.654Zm4.259-2.269c-.534.246-.569.869-.848.7-.36-.212.117-.888.652-1.132a.949.949,0,0,1,1.281.246C410.908,387.583,410.181,387.141,409.648,387.385Z" transform="translate(-398.432 -361.24)"/><path class="a" d="M421.295,374.364c.231-.13,1.642,1.088,1.642,1.088l.951.1-.063-.561,2.443-1.662-2.082-2.087.177-.536-.953-.1s-1.527.914-1.725.741,1.856-1.148,1.856-1.148l.613-1.256-1.316-.821-2.345.105-.1-.406a6.483,6.483,0,0,0,3.789-2.1,6.034,6.034,0,0,0,1.707-5.261,4.843,4.843,0,0,0-2.488-3.375,3.8,3.8,0,0,0-3.393.146c-.055.031-.11.063-.165.1a3.118,3.118,0,0,0-.67.6l-.747-1.371-2.136.95s-1.746,3.548-2.023,3.206,1.337-3.012,1.337-3.012l-.107-1.6-.9.265-3.423-3.568-2.862,4.015-.933-.142.105,1.6s1.934,2.262,1.7,2.639-2.41-2.741-2.41-2.741l-2.243-.662-.987,2.4.827,3.837-.807.343a11.4,11.4,0,0,0,1.774,1.284c.59.264,2.931-.479,2.918-.192s-3.178,2.059-3.178,2.059,1.29,1.678,2.605,1.832a6.719,6.719,0,0,0,1.789.059l.063.467s1.486-.633,1.6-1.341-.426-1.151-.01-1.592a4.86,4.86,0,0,1,.523-.464,6.423,6.423,0,0,1-.463,3.8,8.513,8.513,0,0,1-.805,1.3,2.036,2.036,0,0,0-.364.383.188.188,0,0,0-.028.063,1.42,1.42,0,0,1-.393.294h0a.3.3,0,0,0-.212.365.283.283,0,0,0,.036.083.3.3,0,0,0,.33.131,2.407,2.407,0,0,0,1.067-.906,3.325,3.325,0,0,1,2.467-.615,15.2,15.2,0,0,1,4.833,1.719.3.3,0,0,0,.117.037,2.44,2.44,0,0,1-.235.239.043.043,0,0,1-.016.013l0,0,0,0c-.264.212-.516-.1-.934-.053s-.834.93-.834.93l.277.047a4,4,0,0,0,0,1.07.982.982,0,0,0,.016.1,2.48,2.48,0,1,0,1.282,3.482,2.458,2.458,0,0,0-.043-2.382,6.083,6.083,0,0,1,.9-1.392c.173,0-.261.84.008,1.673a5.056,5.056,0,0,0,.73,1.088l.223-.475,1.841.683,1.888-.649-.348-1.352S421.065,374.491,421.295,374.364Zm-2.631-9.906a8.582,8.582,0,0,0,1.589-1.507l-.844-.234.112-.587a2.811,2.811,0,0,0,.6.314,2.339,2.339,0,0,0,2.605-.781,1.8,1.8,0,0,0-1.049-3.209,1.234,1.234,0,0,0-1.209.637,1.958,1.958,0,0,0-.264,1.492,1.189,1.189,0,0,0,.531.69,1.628,1.628,0,0,1,.258-1.9.892.892,0,0,1,.651-.327,1.289,1.289,0,0,1,1.079.756,1.376,1.376,0,0,1-.435,1.453,1.763,1.763,0,0,1-1.965.622,2.223,2.223,0,0,1-.676-.407l.379-1.985-.534-.985a2.491,2.491,0,0,1,.684-.673,2.632,2.632,0,0,1,2.7-.047,4.233,4.233,0,0,1,2.169,2.954,5.452,5.452,0,0,1-1.572,4.749,7.182,7.182,0,0,1-5.475,2.245,7.027,7.027,0,0,0,1.173-1.46s-3.208-1.054-3.26-1.337S417.365,365.131,418.664,364.458Zm-5.324,6.048a4.568,4.568,0,0,0-1.849.183c.076-.13.15-.267.227-.416a7.04,7.04,0,0,0,.488-4.373c.212.16.576.339.891.6l.027.022v0c.423.381-.028.883.171,1.557s1.762,1.117,1.762,1.117v-.47a6.719,6.719,0,0,0,1.765-.3,2.554,2.554,0,0,0,.942-.5,9.838,9.838,0,0,0,2.446-.074,5.292,5.292,0,0,0-.774.783c-.215.321-.009,1.774-.177,1.74a12.146,12.146,0,0,1-.895-2.079s-1.12.593-1.342,1.354a4.052,4.052,0,0,0-.213,1.047l-.282-.008a2.811,2.811,0,0,0,.38.869A12.169,12.169,0,0,0,413.34,370.505Zm4.107,1.3c.273-.006.49-.107.653.111a2.7,2.7,0,0,1,.2.322C418.154,372.157,417.852,372,417.447,371.806Zm-2.464,4.486c-.534.245-.57.867-.848.7-.361-.213.116-.887.65-1.133a.954.954,0,0,1,1.284.246C416.242,376.488,415.517,376.047,414.983,376.292Z" transform="translate(-399.636 -352.798)"/></g><path class="a" d="M400.2,358.536a62.657,62.657,0,0,0-1.319-8.218l-16.588.01s-1.782,5.553-1.782,8.207a10.089,10.089,0,0,0,8.915,10.186v19.347a49.792,49.792,0,0,0-6.668,2.25H397.1a42.389,42.389,0,0,0-6.279-2.25V368.757A10.067,10.067,0,0,0,400.2,358.536Zm-15.91,4.749c-.807,0-1.462-2.507-1.462-5.6s.655-5.6,1.462-5.6-.239,2.506-.239,5.6S385.094,363.285,384.286,363.285Z"/></g></svg>