<svg xmlns="http://www.w3.org/2000/svg" width="45.71" height="40" viewBox="0 0 45.71 40"><defs><style>.a{fill:#fff;}</style></defs><g transform="translate(-365.634 -133.593)"><rect class="a" width="24.357" height="5.468" transform="translate(379.157 159.123)"/><rect class="a" width="24.357" height="6.328" transform="translate(379.157 151.472)"/><rect class="a" width="24.357" height="5.79" transform="translate(379.157 144.359)"/><path class="a" d="M415.838,142.469v2.107h4.171A28.806,28.806,0,0,0,415.838,142.469Z" transform="translate(-8.712 -1.54)"/><path class="a" d="M373.766,164.556v5.4H377.1v-5.468h-3.332Z" transform="translate(-1.411 -5.361)"/><path class="a" d="M377.111,144.658v-1.715a27.842,27.842,0,0,0-3.269,1.715Z" transform="translate(-1.424 -1.623)"/><path class="a" d="M396.654,136.089h-1.9v-2.5h-2.233v2.5h-1.831v2.182a40.393,40.393,0,0,0-8.614,1.7v-.006l-.078.027v3.041h24.358v-3.357a41.736,41.736,0,0,0-9.7-1.541Z" transform="translate(-2.839)"/><path class="a" d="M415.838,174.93a28.5,28.5,0,0,0,4.218-2.131v-.1h-4.218Z" transform="translate(-8.712 -6.787)"/><path class="a" d="M373.766,146.691v5.718H377.1v-5.79h-3.332Z" transform="translate(-1.411 -2.261)"/><path class="a" d="M415.838,169.952h4.219v-5.468h-4.219Z" transform="translate(-8.712 -5.361)"/><path class="a" d="M415.838,146.62v5.79h4.219v-5.79Z" transform="translate(-8.712 -2.261)"/><path class="a" d="M415.838,161.554h4.219v-6.328h-4.219Z" transform="translate(-8.712 -3.754)"/><path class="a" d="M372.355,154.49v.187c-.06-.006-.117-.018-.177-.018H370.12V151.7h1.919v-1.131h-5.01V151.7h1.919v2.961h-.886a1.915,1.915,0,0,0-.4.043,1.655,1.655,0,0,0-2.03,1.614v2.069a1.657,1.657,0,1,0,3.314,0v-.008h3.23c.06,0,.117-.012.177-.018v2.387h3.331v-6.327h-3.331Z" transform="translate(0 -2.946)"/><path class="a" d="M382,175.866l.078.024v4.489h3.485V178.9h7.918v.017H402.7v1.45l3.544.011.01-4.167.053-.015v0l.02-.007.03-.007V172.7H382Z" transform="translate(-2.839 -6.787)"/><path class="a" d="M373.766,172.774v.016a28.222,28.222,0,0,0,3.331,1.753V172.7h-3.331Z" transform="translate(-1.411 -6.787)"/></g></svg>