<svg xmlns="http://www.w3.org/2000/svg" width="105.055" height="50" viewBox="0 0 105.055 50"><defs><style>.a{fill:#fff;}</style></defs><g transform="translate(-26.347 231.222) rotate(180)"><g transform="translate(-131.402 181.222)"><path class="a" d="M-113.662,202.423a1.735,1.735,0,0,0-1.735-1.735,1.734,1.734,0,0,0-1.735,1.735,1.735,1.735,0,0,0-1.735-1.735,1.735,1.735,0,0,0-1.735,1.735v5.4h0a1.685,1.685,0,0,0,.069.456,1.729,1.729,0,0,0,1.666,1.278,1.735,1.735,0,0,0,1.733-1.71,1.7,1.7,0,0,0,.369,1.032,1.723,1.723,0,0,0,1.367.678,1.732,1.732,0,0,0,1.583-1.029,1.714,1.714,0,0,0,.152-.7v-2.486h0Z" transform="translate(138.902 -167.704)"/><path class="a" d="M-118.867,194.644a1.734,1.734,0,0,0,1.733-1.71,1.709,1.709,0,0,0,.3.946,1.733,1.733,0,0,0,1.439.764,1.736,1.736,0,0,0,1.6-1.061,1.74,1.74,0,0,0,.136-.673v-2.487h0v-2.918a1.737,1.737,0,0,0-1.735-1.735,1.736,1.736,0,0,0-1.735,1.735,1.737,1.737,0,0,0-1.735-1.735,1.737,1.737,0,0,0-1.735,1.735v5.405h0a1.815,1.815,0,0,0,.034.347A1.738,1.738,0,0,0-118.867,194.644Z" transform="translate(138.902 -178.064)"/><path class="a" d="M-29.765,205.946a3.419,3.419,0,0,0,3.418-3.419V184.64a3.418,3.418,0,0,0-3.418-3.418h-10.96v24.724H-58.471V181.222h-.313c-1.888,0-29.641,7.018-30.687,7.806h-13.115c-1.888,0-4.141-1.012-3.419,3.419v1.839c-.722,4.429,1.532,3.418,3.419,3.418h9.077a36.323,36.323,0,0,1-10.833,4.675h-18.949a2.876,2.876,0,0,0-1.042.195,2.9,2.9,0,0,0-1.867-.679h-2.294A2.907,2.907,0,0,0-131.4,204.8v3.391a2.906,2.906,0,0,0,2.908,2.908h2.055a2.892,2.892,0,0,0,2.276-1.115,2.866,2.866,0,0,0,.873.147H-104.6c4.351.673,7.034,2.459,9.818,4.173h-7.808c-1.888,0-4.141-1.013-3.419,3.418v1.838c-.722,4.429,1.532,3.418,3.419,3.418h13.115c2.853,1.527,28.8,8.242,30.687,8.242h.313V206.5h17.746v24.724h10.96a3.419,3.419,0,0,0,3.418-3.419V209.916a3.418,3.418,0,0,0-3.418-3.418h-9.33v-.552Zm-60.607-3.619c-3.743,1.181-6.154,4.118-6.78,2.14s1.9-4.539,5.649-5.722,7.286-.535,7.911,1.44S-86.629,201.145-90.372,202.326Zm14.044,14.2c-6.405.854-11.653,1.108-11.726.563s5.06-1.676,11.463-2.531,11.653-1.106,11.726-.564S-69.925,215.67-76.329,216.524Zm0-25.276c-6.405.854-11.653,1.106-11.726.564s5.06-1.679,11.463-2.533,11.653-1.106,11.726-.563S-69.925,190.392-76.329,191.248Z" transform="translate(131.402 -181.222)"/></g></g></svg>