<svg xmlns="http://www.w3.org/2000/svg" width="25.396" height="40" viewBox="0 0 25.396 40"><defs><style>.a{fill:#fff;}</style></defs><g transform="translate(-25.107 -650.084)"><path class="a" d="M60.38,377.7v-9.627c0-.014,0-.026,0-.04,0-1.052.006-1.923.011-2.489.047-5.069-2.835-5.765-3.465-9.837v-8.1a1.211,1.211,0,0,0-.065-.378,1.249,1.249,0,0,0,.484-.985v-.892a1.259,1.259,0,0,0-1.26-1.259h-1.47a1.259,1.259,0,0,0-1.259,1.259v1a1.26,1.26,0,0,0,.294.81,1.245,1.245,0,0,0-.084.45v8.211c-1.366,5.268-3.571,5.2-3.571,9.728v17.287a1.26,1.26,0,0,0,1.26,1.26h7.875a1.26,1.26,0,0,0,1.26-1.26s-.005-2.225-.009-5.109C60.377,377.719,60.38,377.712,60.38,377.7Zm-6.509-26.069a.968.968,0,0,1,.949-.988h.738a.969.969,0,0,1,.949.988v3.415a.969.969,0,0,1-.949.988H54.82a.969.969,0,0,1-.949-.988Zm-2.024,10.572c.466-1.472,1.474-2.465,2.251-2.22s-.377,1.194-.842,2.666-.064,2.91-.842,2.665S51.384,363.68,51.847,362.207ZM59.9,378.718a1.144,1.144,0,0,1-1.144,1.143H51.62a1.143,1.143,0,0,1-1.144-1.143v-8.736a1.143,1.143,0,0,1,1.144-1.143h7.139a1.144,1.144,0,0,1,1.144,1.143Z" transform="translate(-24.884 305.989)"/><path class="a" d="M60.38,377.7v-9.627c0-.014,0-.026,0-.04,0-1.052.006-1.923.011-2.489.047-5.069-2.835-5.765-3.465-9.837v-8.1a1.211,1.211,0,0,0-.065-.378,1.249,1.249,0,0,0,.484-.985v-.892a1.259,1.259,0,0,0-1.26-1.259h-1.47a1.259,1.259,0,0,0-1.259,1.259v1a1.26,1.26,0,0,0,.294.81,1.245,1.245,0,0,0-.084.45v8.211c-1.366,5.268-3.571,5.2-3.571,9.728v17.287a1.26,1.26,0,0,0,1.26,1.26h7.875a1.26,1.26,0,0,0,1.26-1.26s-.005-2.225-.009-5.109C60.377,377.719,60.38,377.712,60.38,377.7Zm-6.509-26.069a.968.968,0,0,1,.949-.988h.738a.969.969,0,0,1,.949.988v3.415a.969.969,0,0,1-.949.988H54.82a.969.969,0,0,1-.949-.988Zm-2.024,10.572c.466-1.472,1.474-2.465,2.251-2.22s-.377,1.194-.842,2.666-.064,2.91-.842,2.665S51.384,363.68,51.847,362.207ZM59.9,378.718a1.144,1.144,0,0,1-1.144,1.143H51.62a1.143,1.143,0,0,1-1.144-1.143v-8.736a1.143,1.143,0,0,1,1.144-1.143h7.139a1.144,1.144,0,0,1,1.144,1.143Z" transform="translate(-9.884 305.989)"/></g></svg>