<svg xmlns="http://www.w3.org/2000/svg" width="100" height="100" viewBox="0 0 100 100">
  <defs>
    <style>.a{fill:#fff;}</style>
  </defs>
  <path class="a" d="M100.563,50.563a50,50,0,1,1-50-50A50,50,0,0,1,100.563,50.563ZM51.9,17.095c-10.987,0-17.995,4.628-23.5,12.854a2.423,2.423,0,0,0,.547,3.278l7,5.3a2.419,2.419,0,0,0,3.36-.428c3.6-4.568,6.071-7.217,11.553-7.217,4.119,0,9.213,2.651,9.213,6.645,0,3.019-2.493,4.57-6.559,6.85C48.774,47.04,42.5,50.349,42.5,58.627v.806a2.419,2.419,0,0,0,2.419,2.419h11.29a2.419,2.419,0,0,0,2.419-2.419v-.269c0-5.738,16.771-5.977,16.771-21.505C75.4,25.965,63.268,17.095,51.9,17.095Zm-1.342,50a9.274,9.274,0,1,0,9.274,9.274A9.285,9.285,0,0,0,50.563,67.095Z" transform="translate(-0.563 -0.563)" />
</svg>