<svg xmlns="http://www.w3.org/2000/svg" width="18.001" height="23.865" viewBox="0 0 18.001 23.865">
    <g id="Group_488" transform="translate(-8702.46 -22610.434)" opacity="0.4">
        <path id="Path_1360" d="M27.511,14.846a.512.512,0,0,0-.561-.44H25.6a.512.512,0,0,0-.561.44l.029,4.623c0,1.01-1.033,1.868-1.7,2.732a2.174,2.174,0,0,0-.467,1.336V34.643a.873.873,0,0,0,.929.8h5.108c.513,0,1.523-.359,1.523-.8V23.537c0-.5-1.511-1.27-1.811-1.654A3.761,3.761,0,0,1,27.54,19.33Z" transform="translate(8679.564 22598.854)" fill="#fff"/>
        <path id="Path_1361" d="M25.622,14.846a.512.512,0,0,0-.561-.44H23.707a.512.512,0,0,0-.561.44l.029,4.623a2.978,2.978,0,0,1-.792,2.275c-.3.382-1.717,1.3-1.717,1.792V34.643c0,.443.757.8,1.27.8h5.108a.873.873,0,0,0,.929-.8V23.537a2.176,2.176,0,0,0-.475-1.345c-.706-.905-1.847-1.8-1.847-2.861Z" transform="translate(8692.487 22598.854)" fill="#fff"/>
        <g id="dollar" transform="translate(8708.664 22610.434)">
            <g id="Group_479" transform="translate(0 0)">
                <path id="Path_1335" d="M86.346,4.3h0c-1.236-.321-1.633-.651-1.633-1.168,0-.593.547-1.01,1.47-1.01.969,0,1.328.463,1.361,1.143h1.2A2.167,2.167,0,0,0,87,1.192V0H85.366V1.176a2.124,2.124,0,0,0-1.905,1.965c0,1.258,1.042,1.884,2.559,2.248,1.364.327,1.633.8,1.633,1.315,0,.373-.264.972-1.47.972-1.121,0-1.565-.5-1.622-1.143h-1.2a2.286,2.286,0,0,0,2.006,2.085V9.8H87V8.629c1.059-.2,1.905-.817,1.905-1.935C88.9,5.153,87.582,4.625,86.346,4.3Z" transform="translate(-83.36)" fill="#fff"/>
            </g>
        </g>
    </g>
</svg>
