<svg xmlns="http://www.w3.org/2000/svg" width="50.244" height="48.733" viewBox="0 0 50.244 48.733">
    <g id="Group_305" transform="translate(-2.242 -0.141)">
        <path d="M14.922,37.319a6.038,6.038,0,0,1-3.15-.809,5.663,5.663,0,0,0,4.818,2.171c3.5,0,5.615-3.325,7.951-3.325,1.868,0,5.7,3.084,7.238,4.609.081.028.357-.1.814-.826-2.392-2.392-6.984-4.3-8.052-4.3a12.748,12.748,0,0,0-2.935.362C20.294,35.459,16.9,37.319,14.922,37.319Z" transform="translate(-0.025 -0.09)" fill="#fff"/>
        <path d="M8.173,6.97a5.191,5.191,0,0,1-.345,1.035,19.719,19.719,0,0,0,2.754-2.471,19.783,19.783,0,0,1,2.737-3.512A8.2,8.2,0,0,0,9.231,4.454,10.74,10.74,0,0,0,8.173,6.97Z" transform="translate(-0.014 -0.005)" fill="#fff"/>
        <path d="M5.895,6.9A7.205,7.205,0,0,1,8.812,4.2C7.654,5.131,7.32,7.524,7.059,8.6a20.534,20.534,0,0,0-.718,2.177A6.569,6.569,0,0,1,8.258,8.423a10.05,10.05,0,0,0,3-2.646C11.493,7.355,8.8,9.822,8.19,10.3a18.581,18.581,0,0,0-2.46,2.415C5.538,11.3,5.3,8.154,5.895,6.9Z" transform="translate(-0.008 -0.01)" fill="#fff"/>
        <path d="M3.3,11.571c.088-.684.577-3,1.8-4-.713,1.131.094,4.58,0,6.35a10.615,10.615,0,0,0,0,2.115,6.551,6.551,0,0,1,1.061-2.974c.809-1.035,2.409-1.928,2.9-2.918.689,1.438-1.943,4.426-2.38,5.057a20.272,20.272,0,0,0-1.714,3.171C4.369,17.08,3.038,13.629,3.3,11.571Z" transform="translate(-0.003 -0.019)" fill="#fff"/>
        <path d="M2.476,18.7c-.11-.681-.6-3.84.311-5.084-.452,1.244,1.47,4.462,1.928,6.379A19.766,19.766,0,0,0,5.4,22.4a6.593,6.593,0,0,1,.271-3.7c.658-1.465,1.828-3.072,2.07-4.151,1.012,1.232-.318,5.679-.593,6.4a20.272,20.272,0,0,0-.908,3.488C4.992,23.252,2.787,20.628,2.476,18.7Z" transform="translate(0 -0.035)" fill="#fff"/>
        <path d="M3.923,25.774c-.679-.956-2.024-3.127-1.6-5.225-.033,1.323,3.547,4.112,4.59,5.785a6.992,6.992,0,0,0,.827,1.391c-.221-.351-.61-.792-.735-2.991s.543-3.189.543-4.643c.91,1.4.887,4.269,1.08,5.18a36.939,36.939,0,0,1,1.145,4.787C8.209,29.334,5.25,27.643,3.923,25.774Z" transform="translate(0 -0.051)" fill="#fff"/>
        <path d="M7.288,31.6c-.887-.785-3.015-2.444-3.366-4.856.633,1.448,2.782,2.545,6.068,4.275.455.24,1.065.71,1.745,1.12a19.4,19.4,0,0,1-1.745-2.982,18.3,18.3,0,0,1-.7-4.329c1.436,1.142,1.982,2.913,2.441,3.789a43.793,43.793,0,0,1,2.54,4.945C12.533,33.485,8.983,33.1,7.288,31.6Z" transform="translate(-0.004 -0.064)" fill="#fff"/>
        <path d="M11.893,35.8a7.146,7.146,0,0,1-4.152-3.174c1.133,1.1,3.569,1.715,7.12,1.715a24.049,24.049,0,0,1,2.46.334,5.542,5.542,0,0,1-3.051-2.108c-1.185-1.619-.641-1.7-1.62-2.953,1.614.5,3.693,3.187,4.077,3.512a11.3,11.3,0,0,0,3.693,1.742C18.777,35.453,14.029,36.55,11.893,35.8Z" transform="translate(-0.014 -0.076)" fill="#fff"/>
        <path d="M39.882,37.319a6.039,6.039,0,0,0,3.15-.809,5.664,5.664,0,0,1-4.818,2.171c-3.5,0-5.615-3.325-7.951-3.325-1.868,0-5.7,3.084-7.238,4.609-.081.028-.357-.1-.814-.826,2.392-2.392,6.984-4.3,8.052-4.3A12.743,12.743,0,0,1,33.2,35.2C34.51,35.459,37.9,37.319,39.882,37.319Z" transform="translate(-0.052 -0.09)" fill="#fff"/>
        <path d="M46.673,6.97a5.194,5.194,0,0,0,.345,1.035,19.729,19.729,0,0,1-2.754-2.471,19.783,19.783,0,0,0-2.737-3.512,8.2,8.2,0,0,1,4.088,2.432A10.739,10.739,0,0,1,46.673,6.97Z" transform="translate(-0.101 -0.005)" fill="#fff"/>
        <path d="M48.951,6.9a7.206,7.206,0,0,0-2.918-2.7c1.158.932,1.493,3.325,1.753,4.405a20.536,20.536,0,0,1,.718,2.177,6.569,6.569,0,0,0-1.917-2.358,10.05,10.05,0,0,1-3-2.646c-.232,1.578,2.466,4.045,3.071,4.518a18.586,18.586,0,0,1,2.46,2.415C49.307,11.3,49.544,8.154,48.951,6.9Z" transform="translate(-0.107 -0.01)" fill="#fff"/>
        <path d="M51.541,11.571c-.088-.684-.577-3-1.8-4,.713,1.131-.094,4.58,0,6.35a10.614,10.614,0,0,1,0,2.115,6.551,6.551,0,0,0-1.061-2.974c-.809-1.035-2.409-1.928-2.9-2.918-.689,1.438,1.943,4.426,2.38,5.057a20.27,20.27,0,0,1,1.714,3.171C50.476,17.08,51.807,13.629,51.541,11.571Z" transform="translate(-0.112 -0.019)" fill="#fff"/>
        <path d="M52.369,18.7c.11-.681.6-3.84-.311-5.084.452,1.244-1.47,4.462-1.928,6.379a19.762,19.762,0,0,1-.69,2.409,6.594,6.594,0,0,0-.271-3.7c-.658-1.465-1.828-3.072-2.07-4.151-1.012,1.232.318,5.679.593,6.4a20.268,20.268,0,0,1,.908,3.488C49.853,23.252,52.059,20.628,52.369,18.7Z" transform="translate(-0.115 -0.035)" fill="#fff"/>
        <path d="M50.917,25.774c.679-.956,2.024-3.127,1.6-5.225.033,1.323-3.547,4.112-4.59,5.785a6.991,6.991,0,0,1-.827,1.391c.22-.351.61-.792.735-2.991s-.543-3.189-.543-4.643c-.91,1.4-.887,4.269-1.08,5.18a36.943,36.943,0,0,0-1.145,4.787C46.631,29.334,49.589,27.643,50.917,25.774Z" transform="translate(-0.111 -0.051)" fill="#fff"/>
        <path d="M47.546,31.6c.887-.785,3.015-2.444,3.366-4.856-.633,1.448-2.782,2.545-6.068,4.275-.455.24-1.065.71-1.745,1.12a19.417,19.417,0,0,0,1.745-2.982,18.3,18.3,0,0,0,.7-4.329c-1.436,1.142-1.982,2.913-2.441,3.789a43.817,43.817,0,0,0-2.54,4.945C42.3,33.485,45.851,33.1,47.546,31.6Z" transform="translate(-0.099 -0.064)" fill="#fff"/>
        <path d="M42.933,35.8a7.145,7.145,0,0,0,4.152-3.174c-1.133,1.1-3.569,1.715-7.12,1.715a24.049,24.049,0,0,0-2.46.334,5.542,5.542,0,0,0,3.051-2.108c1.185-1.619.641-1.7,1.62-2.953-1.614.5-3.693,3.187-4.077,3.512a11.3,11.3,0,0,1-3.693,1.742C36.049,35.453,40.8,36.55,42.933,35.8Z" transform="translate(-0.083 -0.076)" fill="#fff"/>
        <path d="M11.635,41.713a.629.629,0,0,1,.812-.588,50.227,50.227,0,0,0,14.81,1.828,48.453,48.453,0,0,0,13.713-1.8.641.641,0,0,1,.833.6v5.506a.574.574,0,0,1-.467.57,80.513,80.513,0,0,1-14.079,1.16,100.5,100.5,0,0,1-15.134-1.17.581.581,0,0,1-.488-.577Z" transform="translate(-0.024 -0.106)" fill="#fff"/>
        <path d="M47.632,44.553a.714.714,0,0,1-.966.615,11.29,11.29,0,0,0-4.328-.711,12.023,12.023,0,0,0-3.929.693.748.748,0,0,1-1-.636V41.236a.549.549,0,0,1,.362-.525,14.189,14.189,0,0,1,4.568-.732,17.361,17.361,0,0,1,4.9.741.559.559,0,0,1,.391.541Z" transform="translate(-0.091 -0.103)" fill="#fff"/>
        <path d="M17.426,44.553a.714.714,0,0,1-.966.615,11.289,11.289,0,0,0-4.328-.711,12.024,12.024,0,0,0-3.929.693.748.748,0,0,1-1-.636V41.236a.549.549,0,0,1,.362-.525,14.19,14.19,0,0,1,4.568-.732,17.361,17.361,0,0,1,4.9.741.559.559,0,0,1,.391.541Z" transform="translate(-0.013 -0.103)" fill="#fff"/>
        <path d="M4.1,43.161c.1-.077,1.024.132,2.964.086a10.9,10.9,0,0,0,1.807-.178.781.781,0,0,1,.921.7v1.451a.535.535,0,0,1-.367.52,8.6,8.6,0,0,1-2.523.37,7.835,7.835,0,0,1-3.1-.5,14.159,14.159,0,0,1,1.5-.9A10.374,10.374,0,0,1,4.1,43.161Z" transform="translate(-0.004 -0.111)" fill="#fff"/>
        <path d="M49.971,43.161c-.1-.077-1.024.132-2.964.086a10.9,10.9,0,0,1-1.807-.178.781.781,0,0,0-.921.7v1.451a.535.535,0,0,0,.367.52,8.6,8.6,0,0,0,2.523.37,7.835,7.835,0,0,0,3.1-.5,14.159,14.159,0,0,0-1.5-.9A10.375,10.375,0,0,0,49.971,43.161Z" transform="translate(-0.108 -0.111)" fill="#fff"/>
        <path d="M42.744,17.22a3.152,3.152,0,0,1-.808,1.412h0l0,0A5.379,5.379,0,0,0,40.94,20.2a5.338,5.338,0,0,0-.187,1.823,3.232,3.232,0,0,1-.249,1.654,3.176,3.176,0,0,1-1.337.889l-.038.018a5.393,5.393,0,0,0-1.579.976A4.788,4.788,0,0,0,36.665,27l-.078.167h-.031l-.05.107a2.887,2.887,0,0,1-.82,1.234,3.222,3.222,0,0,1-1.648.231h0a5.413,5.413,0,0,0-1.834.185,5.092,5.092,0,0,0-1.5.948l-.058.047a3.267,3.267,0,0,1-1.43.829,3.041,3.041,0,0,1-1.5-.476l-.06-.03h-.031l-.023-.011a5.309,5.309,0,0,0-1.718-.617,3.051,3.051,0,0,0-.342-.019,6.464,6.464,0,0,0-1.476.231h0l-.016,0-.011,0a3.2,3.2,0,0,1-1.637.132,3.091,3.091,0,0,1-1.142-1.078l-.039-.05A5.592,5.592,0,0,0,19.89,27.5a5.247,5.247,0,0,0-1.71-.592l-.013,0h0a3.292,3.292,0,0,1-1.573-.609,2.968,2.968,0,0,1-.562-1.446L16,24.72A5.375,5.375,0,0,0,15.381,23a5.4,5.4,0,0,0-1.306-1.318L14,21.618h0a3.1,3.1,0,0,1-1.072-1.131,2.958,2.958,0,0,1,.124-1.524l.031-.131,0-.014A5.322,5.322,0,0,0,13.3,17a4.965,4.965,0,0,0-.583-1.607l-.07-.141a3.248,3.248,0,0,1-.5-1.577,3.106,3.106,0,0,1,.8-1.365l.038-.047h0l0,0a5.38,5.38,0,0,0,.992-1.566,5.335,5.335,0,0,0,.187-1.823V8.779a3.042,3.042,0,0,1,.219-1.562,3.176,3.176,0,0,1,1.337-.889l.038-.018a5.393,5.393,0,0,0,1.579-.976,5.466,5.466,0,0,0,1-1.605l.05-.107a2.887,2.887,0,0,1,.82-1.234,3.353,3.353,0,0,1,1.679-.231,5.215,5.215,0,0,0,1.8-.185,5.469,5.469,0,0,0,1.586-1l.048-.039h0a3.039,3.039,0,0,1,1.351-.79,3.3,3.3,0,0,1,1.586.506l.023.011A5.31,5.31,0,0,0,29,1.281a5.378,5.378,0,0,0,1.834-.216l.011,0A3.2,3.2,0,0,1,32.483.931,3.3,3.3,0,0,1,33.7,2.059l.046.059A5.235,5.235,0,0,0,35,3.392a5.249,5.249,0,0,0,1.71.593l.013,0A3.294,3.294,0,0,1,38.3,4.6a3.294,3.294,0,0,1,.622,1.578l0,.014A5.272,5.272,0,0,0,39.51,7.9a5.483,5.483,0,0,0,1.324,1.308l.013.01a3.231,3.231,0,0,1,1.119,1.192,3.231,3.231,0,0,1-.124,1.655l0,.014a5.322,5.322,0,0,0-.214,1.818,5.411,5.411,0,0,0,.622,1.748A3.247,3.247,0,0,1,42.744,17.22ZM23.977,13.48a.312.312,0,0,1,.312.312v.1a2.279,2.279,0,0,0,.561,1.253,3.524,3.524,0,0,1,.5.872.81.81,0,0,1,.042.258V21.01a.4.4,0,0,1-.442.342H22.522a.4.4,0,0,1-.442-.342V16.275a.811.811,0,0,1,.038-.245,3.437,3.437,0,0,1,.47-.854,2.258,2.258,0,0,0,.523-1.213v-.171a.312.312,0,0,1,.312-.312Zm4.051-3.015a.312.312,0,0,0-.312-.312h-.554a.312.312,0,0,0-.312.312v1.021a2.716,2.716,0,0,1-.536,1.356,5.983,5.983,0,0,0-.355.633,1.576,1.576,0,0,0-.14.654v6.735a.466.466,0,0,0,.442.487h2.431a.466.466,0,0,0,.442-.487V14.13A1.576,1.576,0,0,0,29,13.48a5.762,5.762,0,0,0-.4-.69,2.752,2.752,0,0,1-.572-1.4Zm3.427,1.554a.312.312,0,0,1,.312.312v.463a2.52,2.52,0,0,0,.57,1.333,4.553,4.553,0,0,1,.451.779,1.126,1.126,0,0,1,.084.427v5.613a.425.425,0,0,1-.442.406H30a.425.425,0,0,1-.442-.406V15.333a1.127,1.127,0,0,1,.082-.422,4.578,4.578,0,0,1,.417-.742,2.5,2.5,0,0,0,.533-1.292v-.546a.312.312,0,0,1,.312-.312Zm-8.357.974a.244.244,0,0,1,.244-.244h.7a.244.244,0,1,1,0,.487h-.7A.244.244,0,0,1,23.1,12.994Zm3.984-3.571a.244.244,0,1,0,0,.487h.7a.244.244,0,1,0,0-.487Zm3.5,2.11a.244.244,0,0,1,.244-.244h.7a.244.244,0,0,1,0,.487h-.7A.244.244,0,0,1,30.578,11.533Zm8.127,4.177A10.949,10.949,0,1,1,27.756,4.761,10.949,10.949,0,0,1,38.705,15.71Zm1.16,0A12.11,12.11,0,1,1,27.756,3.6,12.109,12.109,0,0,1,39.865,15.71Z" transform="translate(-0.026)" fill="#fff" fill-rule="evenodd"/>
    </g>
</svg>
